<?xml version="1.0" encoding="UTF-8" standalone="no"?>
<!-- Created with Inkscape (http://www.inkscape.org/) -->

<svg
   width="61.829899mm"
   height="61.829906mm"
   viewBox="0 0 61.829899 61.829906"
   version="1.1"
   id="svg1"
   xml:space="preserve"
   inkscape:version="1.3.2 (091e20e, 2023-11-25, custom)"
   sodipodi:docname="icons.svg"
   xmlns:inkscape="http://www.inkscape.org/namespaces/inkscape"
   xmlns:sodipodi="http://sodipodi.sourceforge.net/DTD/sodipodi-0.dtd"
   xmlns="http://www.w3.org/2000/svg"
   xmlns:svg="http://www.w3.org/2000/svg"><sodipodi:namedview
     id="namedview1"
     pagecolor="#ffffff"
     bordercolor="#000000"
     borderopacity="0.25"
     inkscape:showpageshadow="2"
     inkscape:pageopacity="0.0"
     inkscape:pagecheckerboard="0"
     inkscape:deskcolor="#d1d1d1"
     inkscape:document-units="mm"
     inkscape:zoom="0.87659933"
     inkscape:cx="340.52045"
     inkscape:cy="529.31822"
     inkscape:window-width="1280"
     inkscape:window-height="730"
     inkscape:window-x="-6"
     inkscape:window-y="-6"
     inkscape:window-maximized="1"
     inkscape:current-layer="layer1" /><defs
     id="defs1" /><g
     inkscape:label="Layer 1"
     inkscape:groupmode="layer"
     id="layer1"
     transform="translate(-144.69905,-80.380392)"><path
       style="fill:none;stroke:#000000;stroke-width:3.52778;stroke-linecap:square;stroke-linejoin:miter;stroke-dasharray:none;stroke-opacity:1"
       d="m 146.46294,82.14428 v 58.30212 h 58.30212 V 82.14428 Z"
       id="path1-4-9"
       inkscape:export-filename="bio.svg"
       inkscape:export-xdpi="96"
       inkscape:export-ydpi="96" /><path
       style="fill:#000000;stroke-width:0.35449"
       d="m 162.22685,129.63955 c 0,-0.24223 0.0455,-0.29003 0.35619,-0.37367 0.40297,-0.10852 0.72805,-0.42109 1.07835,-1.03683 0.13205,-0.23214 1.96897,-4.34727 4.08203,-9.14473 2.11305,-4.79746 4.0787,-9.2565 4.36812,-9.90895 0.28943,-0.65246 0.52623,-1.28814 0.52623,-1.41265 0,-0.12449 -0.0845,-0.31697 -0.18758,-0.4277 -0.11439,-0.12276 -0.18758,-0.331 -0.18758,-0.53354 v -0.3322 h 3.23583 3.23582 v 0.29003 c 0,0.15952 -0.0845,0.39735 -0.18758,0.52851 -0.10319,0.13117 -0.1876,0.36153 -0.1876,0.51193 0,0.15037 0.33306,0.99938 0.74011,1.88664 0.40706,0.88726 2.39399,5.32481 4.4154,9.86125 2.02142,4.53642 3.75463,8.40356 3.8516,8.59361 0.23176,0.4543 0.64881,0.79545 1.22076,0.9986 0.42822,0.15208 0.46444,0.18882 0.46444,0.4712 v 0.30627 h -3.80452 -3.80453 l 0.0294,-0.30483 c 0.0225,-0.23273 0.0788,-0.31185 0.23855,-0.33456 0.11504,-0.0163 0.29885,-0.14296 0.40847,-0.28137 0.31825,-0.40182 0.20262,-1.02345 -0.44032,-2.36733 -0.42049,-0.87895 -0.57174,-1.11416 -0.68657,-1.06773 -0.45578,0.18427 -1.67545,0.50827 -2.4921,0.66203 -1.43099,0.26941 -4.69878,0.24715 -6.02832,-0.0411 -0.79715,-0.17279 -2.09555,-0.53947 -2.61193,-0.73763 -0.1997,-0.0767 -1.44238,2.5718 -1.44238,3.07406 0,0.38029 0.3369,0.69678 0.82478,0.7748 0.3614,0.0577 0.39451,0.0866 0.39451,0.34334 v 0.28027 h -3.70479 -3.70479 z m 16.03844,-7.31103 c 1.12183,-0.26634 1.21931,-0.29917 1.21931,-0.41072 0,-0.18963 -4.0798,-9.15516 -4.1363,-9.08968 -0.0442,0.0512 -3.7967,8.41315 -3.99419,8.90039 -0.0505,0.12475 1.14995,0.51638 2.08089,0.67883 0.30951,0.0541 0.66826,0.11686 0.79724,0.13969 0.61089,0.10804 3.26274,-0.0356 4.03305,-0.21851 z m -16.61,2.4569 c -3.51525,-3.68545 -5.47048,-9.17397 -5.06915,-14.2296 0.10715,-1.34968 0.33776,-2.69691 0.64552,-3.77103 l 0.1649,-0.57552 1.96749,0.87393 c 1.08214,0.48066 1.98084,0.91397 1.99715,0.9629 0.0163,0.0489 -0.0602,0.52662 -0.1702,1.06157 -0.37149,1.80809 -0.34672,4.15688 0.0632,5.9905 0.39441,1.76416 1.39811,3.98536 2.42804,5.37327 l 0.61173,0.82434 -0.89661,2.03535 c -0.49312,1.11942 -0.93013,2.06886 -0.97112,2.10987 -0.0411,0.041 -0.38793,-0.25402 -0.77097,-0.65558 z m 26.20577,-1.3678 -0.93344,-2.09146 0.62874,-0.87612 c 2.54471,-3.54584 3.35294,-7.83204 2.30025,-12.19871 -0.0545,-0.22598 0.0144,-0.26588 1.90247,-1.10205 1.07745,-0.47717 2.00114,-0.86759 2.05267,-0.86759 0.12469,0 0.53528,1.66815 0.72717,2.95446 0.20424,1.36916 0.20628,3.70679 0.006,5.14862 -0.46007,3.2873 -1.74548,6.38639 -3.73044,8.99394 -0.60401,0.79347 -1.82702,2.13037 -1.94887,2.13037 -0.0383,0 -0.48967,-0.94116 -1.00307,-2.09146 z m -27.55695,-18.67676 c -1.62706,-0.72636 -1.96424,-0.90946 -1.93862,-1.05267 0.0479,-0.2674 0.81617,-1.6433 1.42288,-2.54807 1.50007,-2.236966 3.59762,-4.257918 5.86189,-5.647825 2.17257,-1.333619 5.27642,-2.436632 7.50337,-2.666461 0.30951,-0.03195 0.69991,-0.07933 0.86757,-0.105284 l 0.30483,-0.04719 v 2.302156 c 0,1.266183 -0.0317,2.302327 -0.0703,2.302533 -0.26248,0.0014 -1.88122,0.310732 -2.46203,0.470478 -3.92009,1.078132 -7.31279,3.788543 -9.12179,7.287363 -0.16738,0.32372 -0.32543,0.58761 -0.35122,0.58644 -0.0259,-8e-4 -0.93322,-0.39783 -2.01653,-0.88145 z m 28.28681,0.33837 c -0.89861,-1.78014 -2.94354,-4.08283 -4.6512,-5.237498 -2.06556,-1.396659 -3.9511,-2.099658 -6.77648,-2.526521 l -0.30483,-0.04605 v -2.293657 c 0,-1.384034 0.0354,-2.293658 0.089,-2.293658 0.049,0 0.57211,0.06334 1.16259,0.140736 6.12981,0.803552 11.72359,4.746186 14.46821,10.197538 l 0.41202,0.81838 -0.26178,0.13538 c -0.4968,0.25691 -3.68171,1.65128 -3.7717,1.65128 -0.0497,0 -0.21425,-0.24567 -0.36581,-0.54593 z"
       id="path4" /></g><style
     type="text/css"
     id="style1">
	.st0{fill:#000000;}
</style></svg>
