<?xml version="1.0" encoding="UTF-8" standalone="no"?>
<!-- Created with Inkscape (http://www.inkscape.org/) -->

<svg
   width="61.829906mm"
   height="61.829899mm"
   viewBox="0 0 61.829906 61.829899"
   version="1.1"
   id="svg1"
   xml:space="preserve"
   inkscape:version="1.3.2 (091e20e, 2023-11-25, custom)"
   sodipodi:docname="icons.svg"
   xmlns:inkscape="http://www.inkscape.org/namespaces/inkscape"
   xmlns:sodipodi="http://sodipodi.sourceforge.net/DTD/sodipodi-0.dtd"
   xmlns="http://www.w3.org/2000/svg"
   xmlns:svg="http://www.w3.org/2000/svg"><sodipodi:namedview
     id="namedview1"
     pagecolor="#ffffff"
     bordercolor="#000000"
     borderopacity="0.25"
     inkscape:showpageshadow="2"
     inkscape:pageopacity="0.0"
     inkscape:pagecheckerboard="0"
     inkscape:deskcolor="#d1d1d1"
     inkscape:document-units="mm"
     inkscape:zoom="0.87659933"
     inkscape:cx="340.52045"
     inkscape:cy="529.31822"
     inkscape:window-width="1280"
     inkscape:window-height="730"
     inkscape:window-x="-6"
     inkscape:window-y="-6"
     inkscape:window-maximized="1"
     inkscape:current-layer="layer1" /><defs
     id="defs1" /><g
     inkscape:label="Layer 1"
     inkscape:groupmode="layer"
     id="layer1"
     transform="translate(-75.794458,-148.5)"><path
       style="fill:none;stroke:#000000;stroke-width:3.52778;stroke-linecap:square;stroke-linejoin:miter;stroke-dasharray:none;stroke-opacity:1"
       d="m 77.55835,150.26389 v 58.30212 h 58.30212 v -58.30212 z"
       id="path1-4-9-4-3"
       inkscape:export-filename="bio.svg"
       inkscape:export-xdpi="96"
       inkscape:export-ydpi="96" /><g
       style="fill:none;fill-opacity:1;stroke:#000000;stroke-opacity:1"
       id="g6"
       transform="matrix(1.9529069,0,0,1.9529069,83.274527,155.98007)"><path
         d="m 14.381,9.02721 c 0.5957,-0.2081 1.2368,-0.32133 1.9047,-0.32133 0.6547,0 1.2836,0.1088 1.8694,0.3091 M 7.11616,11.6089 C 6.8475,11.5567 6.56983,11.5294 6.28571,11.5294 3.91878,11.5294 2,13.4256 2,15.7647 2,18.1038 3.91878,20 6.28571,20 H 16.2857 C 19.4416,20 22,17.4717 22,14.3529 22,11.8811 20.393,9.78024 18.1551,9.01498 M 7.11616,11.6089 C 6.88706,10.9978 6.7619,10.3369 6.7619,9.64706 6.7619,6.52827 9.32028,4 12.4762,4 c 2.9397,0 5.3609,2.19371 5.6789,5.01498 M 7.11616,11.6089 c 0.56443,0.1095 1.08912,0.3285 1.55051,0.6337"
         stroke="#1c274c"
         stroke-width="1.5"
         stroke-linecap="round"
         id="path1-0"
         style="fill:none;fill-opacity:1;stroke:#000000;stroke-opacity:1" /></g></g><style
     type="text/css"
     id="style1">
	.st0{fill:#000000;}
</style></svg>
