<?xml version="1.0" encoding="UTF-8" standalone="no"?>
<!-- Created with Inkscape (http://www.inkscape.org/) -->

<svg
   width="61.829906mm"
   height="61.829899mm"
   viewBox="0 0 61.829906 61.829899"
   version="1.1"
   id="svg1"
   xml:space="preserve"
   xmlns="http://www.w3.org/2000/svg"
   xmlns:svg="http://www.w3.org/2000/svg"><defs
     id="defs1" /><g
     id="layer1"
     transform="translate(-75.794458,-152.12194)"><path
       style="fill:none;stroke:#000000;stroke-width:3.52778;stroke-linecap:square;stroke-linejoin:miter;stroke-dasharray:none;stroke-opacity:1"
       d="m 77.55835,153.88584 v 58.30212 h 58.30212 v -58.30212 z"
       id="path1-4-9-4-3" /><g
       style="fill:#000000"
       id="g11"
       transform="matrix(0.08108195,0,0,0.08108195,85.952431,162.27992)"><g
         id="g2">
	<g
   id="g1">
		<path
   d="m 256,29.480469 c -26.91576,0 -52.88976,9.747545 -73.13477,27.449218 -10.94052,9.56532 -19.80093,21.09906 -26.21484,33.867188 C 140.91314,82.511517 123.32095,78.115234 105.01172,78.115234 43.65875,78.116294 -6.1660156,127.94196 -6.1660156,189.29492 c 0,53.45437 37.9059916,98.10707 88.3164066,108.69922 V 482.51953 H 429.85156 V 297.99414 c 50.40869,-10.59218 88.31446,-55.24484 88.31446,-108.69922 0,-61.35296 -49.82464,-111.179686 -111.17774,-111.179686 -18.3102,0 -35.90244,4.398609 -51.64062,12.685547 C 348.93326,78.031776 340.07375,66.496162 329.13477,56.929687 308.88957,39.22785 282.91576,29.480469 256,29.480469 Z m 0,45.724609 c 32.33607,0 60.20066,24.127498 64.77344,56.070312 l 6.6289,46.3125 32.46485,-33.6875 c 12.47367,-12.9447 29.19511,-20.06055 47.12109,-20.06055 36.0428,0 65.45508,29.41228 65.45508,65.45508 0,36.0428 -29.41207,65.45313 -65.45508,65.45313 h -22.86133 v 96.11523 h -256.2539 v -96.11523 h -22.86133 c -36.043011,0 -65.455079,-29.41033 -65.455079,-65.45313 0,-36.0428 29.412278,-65.45508 65.455079,-65.45508 17.92707,0 34.64921,7.11567 47.12305,20.06055 l 32.46289,33.6875 6.6289,-46.3125 C 195.79934,99.332618 223.66393,75.205078 256,75.205078 Z M 127.87305,396.58594 h 256.2539 v 40.20898 h -256.2539 z"
   id="path1-0" />
	</g>
</g></g></g><style
     type="text/css"
     id="style1">
	.st0{fill:#000000;}
</style><style
     type="text/css"
     id="style1-7">
	.st0{fill:#000000;}
</style></svg>
