<?xml version="1.0" encoding="UTF-8" standalone="no"?>
<!-- Created with Inkscape (http://www.inkscape.org/) -->

<svg
   width="61.829899mm"
   height="61.829899mm"
   viewBox="0 0 61.829899 61.829899"
   version="1.1"
   id="svg1"
   xml:space="preserve"
   inkscape:version="1.3.2 (091e20e, 2023-11-25, custom)"
   sodipodi:docname="icons.svg"
   xmlns:inkscape="http://www.inkscape.org/namespaces/inkscape"
   xmlns:sodipodi="http://sodipodi.sourceforge.net/DTD/sodipodi-0.dtd"
   xmlns="http://www.w3.org/2000/svg"
   xmlns:svg="http://www.w3.org/2000/svg"><sodipodi:namedview
     id="namedview1"
     pagecolor="#ffffff"
     bordercolor="#000000"
     borderopacity="0.25"
     inkscape:showpageshadow="2"
     inkscape:pageopacity="0.0"
     inkscape:pagecheckerboard="0"
     inkscape:deskcolor="#d1d1d1"
     inkscape:document-units="mm"
     inkscape:zoom="0.87659933"
     inkscape:cx="340.52045"
     inkscape:cy="529.31822"
     inkscape:window-width="1280"
     inkscape:window-height="730"
     inkscape:window-x="-6"
     inkscape:window-y="-6"
     inkscape:window-maximized="1"
     inkscape:current-layer="layer1" /><defs
     id="defs1" /><g
     inkscape:label="Layer 1"
     inkscape:groupmode="layer"
     id="layer1"
     transform="translate(-3.608296,-148.5)"><path
       style="fill:none;stroke:#000000;stroke-width:3.52778;stroke-linecap:square;stroke-linejoin:miter;stroke-dasharray:none;stroke-opacity:1"
       d="m 5.372186,150.26389 v 58.30212 h 58.30212 v -58.30212 z"
       id="path1-4-9-4"
       inkscape:export-filename="bio.svg"
       inkscape:export-xdpi="96"
       inkscape:export-ydpi="96" /><g
       style="fill:none"
       id="g7"
       transform="matrix(2.6594269,0,0,2.6594269,14.577544,159.46925)"><path
         d="M 0.5,5.5 V 5 H 0 v 0.5 z m 2,-2 V 3 H 2 v 0.5 z m 4,-2 V 1 H 6 v 0.5 z m 2,0 H 9 V 1 H 8.5 Z m 4,6 H 12 V 8 h 0.5 z M 1,7.5 v -2 H 0 v 2 z m 2,0 v -4 H 2 v 4 z M 2.5,4 h 6 V 3 h -6 z M 8,3.5 v 4 h 1 v -4 z m -3,4 v -4 H 4 v 4 z m 2,0 v -6 H 6 v 6 z M 6.5,2 h 2 V 1 h -2 z M 8,1.5 v 2 h 1 v -2 z M 13.7361,10 H 15 V 9 H 13.7361 Z M 10,5 v 0.5 h 1 V 5 Z m 2,1.5 v 1 h 1 v -1 z M 12.5,8 h 1 V 7 h -1 z M 14,8.5 v 1 h 1 v -1 z M 13.5,8 C 13.7761,8 14,8.22386 14,8.5 h 1 C 15,7.67157 14.3284,7 13.5,7 Z m -2,-2 C 11.7761,6 12,6.22386 12,6.5 h 1 C 13,5.67157 12.3284,5 11.5,5 Z M 3,10 H 4 V 9 H 3 Z M 8.5,7 h -8 v 1 h 8 z M 0,7.5 v 1 h 1 v -1 z M 5.5,14 H 6.02786 V 13 H 5.5 Z m 0.52786,0 c 2.48479,0 4.78854,-1.1904 6.23064,-3.1504 L 11.4531,10.257 C 10.1974,11.9636 8.19126,13 6.02786,13 Z M 0,8.5 C 0,11.5376 2.46243,14 5.5,14 V 13 C 3.01472,13 1,10.9853 1,8.5 Z M 0.5,6 h 11 V 5 H 0.5 Z M 10,5.5 C 10,6.32843 9.32843,7 8.5,7 V 8 C 9.88071,8 11,6.88071 11,5.5 Z M 13.7361,9 c -0.9599,0 -1.7688,0.55817 -2.283,1.257 l 0.8054,0.5926 C 12.6423,10.3281 13.1808,10 13.7361,10 Z"
         fill="#000000"
         id="path1-82" /></g></g><style
     type="text/css"
     id="style1">
	.st0{fill:#000000;}
</style></svg>
