<?xml version="1.0" encoding="UTF-8" standalone="no"?>
<!-- Created with Inkscape (http://www.inkscape.org/) -->

<svg
   width="61.829899mm"
   height="61.829899mm"
   viewBox="0 0 61.829899 61.829899"
   version="1.1"
   id="svg1"
   xml:space="preserve"
   inkscape:version="1.3.2 (091e20e, 2023-11-25, custom)"
   sodipodi:docname="icons.svg"
   xmlns:inkscape="http://www.inkscape.org/namespaces/inkscape"
   xmlns:sodipodi="http://sodipodi.sourceforge.net/DTD/sodipodi-0.dtd"
   xmlns="http://www.w3.org/2000/svg"
   xmlns:svg="http://www.w3.org/2000/svg"><sodipodi:namedview
     id="namedview1"
     pagecolor="#ffffff"
     bordercolor="#000000"
     borderopacity="0.25"
     inkscape:showpageshadow="2"
     inkscape:pageopacity="0.0"
     inkscape:pagecheckerboard="0"
     inkscape:deskcolor="#d1d1d1"
     inkscape:document-units="mm"
     inkscape:zoom="0.87659933"
     inkscape:cx="340.52045"
     inkscape:cy="529.31822"
     inkscape:window-width="1280"
     inkscape:window-height="730"
     inkscape:window-x="-6"
     inkscape:window-y="-6"
     inkscape:window-maximized="1"
     inkscape:current-layer="layer1" /><defs
     id="defs1" /><g
     inkscape:label="Layer 1"
     inkscape:groupmode="layer"
     id="layer1"
     transform="translate(-144.69905,-148.5)"><path
       style="fill:none;stroke:#000000;stroke-width:3.52778;stroke-linecap:square;stroke-linejoin:miter;stroke-dasharray:none;stroke-opacity:1"
       d="m 146.46294,150.26389 v 58.30212 h 58.30212 v -58.30212 z"
       id="path1-4-9-4-3-9"
       inkscape:export-filename="bio.svg"
       inkscape:export-xdpi="96"
       inkscape:export-ydpi="96" /><g
       style="fill:#000000"
       id="g8"
       transform="matrix(0.04654022,0,0,0.04654022,151.78541,155.58636)"><path
         d="M 888,680 H 834 V 540 H 546 v -92 h 238 c 8.8,0 16,-7.2 16,-16 V 168 c 0,-8.8 -7.2,-16 -16,-16 H 240 c -8.8,0 -16,7.2 -16,16 v 264 c 0,8.8 7.2,16 16,16 h 238 v 92 H 190 v 140 h -54 c -4.4,0 -8,3.6 -8,8 v 176 c 0,4.4 3.6,8 8,8 h 176 c 4.4,0 8,-3.6 8,-8 V 688 c 0,-4.4 -3.6,-8 -8,-8 h -54 v -72 h 220 v 72 h -54 c -4.4,0 -8,3.6 -8,8 v 176 c 0,4.4 3.6,8 8,8 h 176 c 4.4,0 8,-3.6 8,-8 V 688 c 0,-4.4 -3.6,-8 -8,-8 h -54 v -72 h 220 v 72 h -54 c -4.4,0 -8,3.6 -8,8 v 176 c 0,4.4 3.6,8 8,8 h 176 c 4.4,0 8,-3.6 8,-8 V 688 c 0,-4.4 -3.6,-8 -8,-8 z M 256,805.3 c 0,1.5 -1.2,2.7 -2.7,2.7 h -58.7 c -1.5,0 -2.7,-1.2 -2.7,-2.7 v -58.7 c 0,-1.5 1.2,-2.7 2.7,-2.7 h 58.7 c 1.5,0 2.7,1.2 2.7,2.7 z m 288,0 c 0,1.5 -1.2,2.7 -2.7,2.7 h -58.7 c -1.5,0 -2.7,-1.2 -2.7,-2.7 v -58.7 c 0,-1.5 1.2,-2.7 2.7,-2.7 h 58.7 c 1.5,0 2.7,1.2 2.7,2.7 z M 288,384 V 216 h 448 v 168 z m 544,421.3 c 0,1.5 -1.2,2.7 -2.7,2.7 h -58.7 c -1.5,0 -2.7,-1.2 -2.7,-2.7 v -58.7 c 0,-1.5 1.2,-2.7 2.7,-2.7 h 58.7 c 1.5,0 2.7,1.2 2.7,2.7 z M 360,300 a 40,40 0 1 0 80,0 40,40 0 1 0 -80,0 z"
         id="path1-6" /></g></g><style
     type="text/css"
     id="style1">
	.st0{fill:#000000;}
</style></svg>
