<?xml version="1.0" encoding="UTF-8" standalone="no"?>
<!-- Created with Inkscape (http://www.inkscape.org/) -->

<svg
   width="61.829899mm"
   height="61.829914mm"
   viewBox="0 0 61.829899 61.829914"
   version="1.1"
   id="svg1"
   xml:space="preserve"
   xmlns="http://www.w3.org/2000/svg"
   xmlns:svg="http://www.w3.org/2000/svg"><defs
     id="defs1" /><g
     id="layer1"
     transform="translate(-6.5946638,-226.9096)"><path
       style="fill:none;stroke:#000000;stroke-width:3.52778;stroke-linecap:square;stroke-linejoin:miter;stroke-dasharray:none;stroke-opacity:1"
       d="m 8.3585535,228.67349 v 58.30212 H 66.660673 v -58.30212 z"
       id="path1-4-9-4-3-9-4" /><g
       style="fill:none"
       id="g1"
       transform="matrix(2.8796005,0,0,2.8796005,14.473836,234.78775)"><path
         fill="#000000"
         fill-rule="evenodd"
         d="M 5.374,15 C 5.039,15 4.714,14.847 4.5,14.569 L 1.246,10.397 A 1.15,1.15 0 0 1 1.032,9.419 L 2.197,4.212 C 2.271,3.867 2.495,3.589 2.802,3.436 L 7.517,1.116 C 7.667,1.038 7.834,1 8.002,1 8.17,1 8.337,1.038 8.487,1.115 L 13.2,3.426 c 0.308,0.153 0.532,0.432 0.606,0.777 l 1.165,5.207 c 0.074,0.345 0,0.7 -0.214,0.978 L 11.5,14.566 C 11.286,14.834 10.96,15 10.625,15 h -5.25 z m 7.718,-5.835 0.031,0.008 a 0.308,0.308 0 0 1 0.26,0.371 0.306,0.306 0 0 1 -0.396,0.223 H 12.983 L 12.98,9.766 12.977,9.765 12.947,9.758 12.897,9.748 A 2.548,2.548 0 0 1 12.623,9.642 2.87,2.87 0 0 0 12.09,9.486 0.242,0.242 0 0 0 11.919,9.549 4.76,4.76 0 0 0 11.788,9.526 3.972,3.972 0 0 1 10.024,11.738 c 0.015,0.042 0.032,0.083 0.051,0.123 a 0.239,0.239 0 0 0 -0.023,0.18 c 0.074,0.17 0.165,0.332 0.271,0.484 0.06,0.078 0.114,0.16 0.164,0.244 l 0.028,0.057 0.012,0.025 a 0.306,0.306 0 0 1 -0.381,0.44 0.307,0.307 0 0 1 -0.172,-0.18 2.608,2.608 0 0 0 -0.01,-0.02 L 9.936,13.033 A 2.545,2.545 0 0 1 9.847,12.753 2.835,2.835 0 0 0 9.637,12.241 0.242,0.242 0 0 0 9.481,12.146 5.926,5.926 0 0 1 9.451,12.093 L 9.416,12.029 A 3.97,3.97 0 0 1 6.592,12.022 l -0.069,0.125 a 0.249,0.249 0 0 0 -0.132,0.064 c -0.104,0.17 -0.184,0.355 -0.237,0.548 a 2.525,2.525 0 0 1 -0.088,0.28 l -0.025,0.05 -0.013,0.027 v 0.001 A 0.307,0.307 0 1 1 5.475,12.856 l 0.014,-0.03 0.026,-0.052 c 0.05,-0.085 0.104,-0.166 0.164,-0.244 0.108,-0.156 0.2,-0.322 0.277,-0.496 A 0.302,0.302 0 0 0 5.928,11.861 L 5.984,11.728 A 3.972,3.972 0 0 1 4.22,9.532 L 4.086,9.555 A 0.34,0.34 0 0 0 3.91,9.493 2.872,2.872 0 0 0 3.377,9.649 C 3.287,9.689 3.196,9.724 3.103,9.754 L 3.053,9.765 3.023,9.772 H 3.02 L 3.018,9.774 H 3.013 A 0.308,0.308 0 0 1 2.616,9.425 0.306,0.306 0 0 1 2.877,9.18 L 2.881,9.179 H 2.884 L 2.89,9.177 C 2.914,9.171 2.944,9.163 2.966,9.159 3.063,9.146 3.161,9.138 3.259,9.136 3.445,9.123 3.629,9.093 3.808,9.046 A 0.422,0.422 0 0 0 3.939,8.913 L 4.067,8.876 A 3.938,3.938 0 0 1 4.691,6.124 L 4.594,6.037 A 0.338,0.338 0 0 0 4.532,5.861 2.854,2.854 0 0 0 4.077,5.542 2.557,2.557 0 0 1 3.823,5.394 1.129,1.129 0 0 1 3.76,5.344 L 3.756,5.34 A 0.323,0.323 0 0 1 3.68,4.89 0.295,0.295 0 0 1 3.924,4.783 0.365,0.365 0 0 1 4.137,4.863 L 4.159,4.88 C 4.175,4.893 4.193,4.906 4.205,4.917 4.276,4.984 4.344,5.056 4.407,5.13 4.532,5.267 4.67,5.392 4.819,5.502 4.875,5.532 4.94,5.538 5.001,5.52 l 0.11,0.078 A 3.938,3.938 0 0 1 7.663,4.374 L 7.67,4.245 A 0.332,0.332 0 0 0 7.77,4.088 2.844,2.844 0 0 0 7.736,3.534 2.555,2.555 0 0 1 7.694,3.244 V 3.191 3.166 3.162 3.158 A 0.306,0.306 0 0 1 8,2.82 0.308,0.308 0 0 1 8.306,3.157 V 3.244 A 2.53,2.53 0 0 1 8.265,3.534 2.85,2.85 0 0 0 8.23,4.087 0.242,0.242 0 0 0 8.33,4.24 v 0.007 l 0.007,0.13 c 0.967,0.087 1.87,0.522 2.54,1.223 l 0.116,-0.083 a 0.34,0.34 0 0 0 0.186,-0.02 c 0.149,-0.11 0.287,-0.235 0.412,-0.373 a 2.53,2.53 0 0 1 0.202,-0.213 l 0.051,-0.04 0.017,-0.014 a 0.308,0.308 0 0 1 0.472,0.388 0.307,0.307 0 0 1 -0.09,0.09 c -0.008,0.005 -0.017,0.012 -0.025,0.02 l -0.043,0.033 a 2.549,2.549 0 0 1 -0.254,0.148 2.865,2.865 0 0 0 -0.455,0.32 0.24,0.24 0 0 0 -0.058,0.172 4.458,4.458 0 0 1 -0.05,0.044 L 11.3,6.125 c 0.542,0.806 0.769,1.783 0.637,2.745 l 0.123,0.036 c 0.031,0.056 0.077,0.101 0.132,0.132 0.18,0.048 0.364,0.078 0.55,0.09 0.097,0.003 0.195,0.01 0.292,0.024 z M 10.217,6.065 8.909,6.99 8.905,6.988 A 0.27,0.27 0 0 1 8.475,6.783 V 6.782 L 8.384,5.184 a 3.183,3.183 0 0 1 1.833,0.882 z M 7.754,7.818 H 8.246 L 8.552,8.199 8.442,8.675 8,8.886 7.557,8.673 7.447,8.198 7.754,7.817 Z M 7.29,5.24 C 7.397,5.216 7.506,5.197 7.616,5.184 l -0.09,1.6 -0.008,0.004 A 0.268,0.268 0 0 1 7.225,7.044 0.27,0.27 0 0 1 7.09,6.994 L 7.088,6.995 5.772,6.065 C 6.191,5.655 6.717,5.369 7.29,5.24 Z M 5.296,6.663 6.497,7.734 6.496,7.741 A 0.269,0.269 0 0 1 6.39,8.203 L 6.389,8.208 4.849,8.651 A 3.134,3.134 0 0 1 5.296,6.663 Z M 6.904,9.509 6.292,10.983 A 3.16,3.16 0 0 1 5.022,9.397 L 6.6,9.13 6.603,9.133 A 0.265,0.265 0 0 1 6.783,9.162 0.27,0.27 0 0 1 6.9,9.503 Z m 1.806,1.896 c -0.572,0.13 -1.17,0.1 -1.726,-0.088 l 0.777,-1.4 H 7.762 A 0.27,0.27 0 0 1 8.237,9.916 h 0.006 l 0.779,1.402 A 3.286,3.286 0 0 1 8.71,11.405 Z M 9.714,10.989 9.096,9.5 9.097,9.497 A 0.269,0.269 0 0 1 9.393,9.127 L 9.396,9.123 10.989,9.392 A 3.147,3.147 0 0 1 9.714,10.989 Z M 11.156,8.646 9.61,8.201 9.608,8.195 A 0.27,0.27 0 0 1 9.423,7.852 0.27,0.27 0 0 1 9.503,7.732 L 9.5,7.73 10.695,6.663 c 0.366,0.594 0.527,1.29 0.46,1.983 z"
         clip-rule="evenodd"
         id="path1-9" /></g></g><style
     type="text/css"
     id="style1">
	.st0{fill:#000000;}
</style></svg>
