<?xml version="1.0" encoding="UTF-8" standalone="no"?>
<!-- Created with Inkscape (http://www.inkscape.org/) -->

<svg
   width="61.829899mm"
   height="61.829906mm"
   viewBox="0 0 61.829899 61.829906"
   version="1.1"
   id="svg1"
   xml:space="preserve"
   xmlns="http://www.w3.org/2000/svg"
   xmlns:svg="http://www.w3.org/2000/svg"><defs
     id="defs1" /><g
     id="layer1"
     transform="translate(-144.69905,-80.380392)"><path
       style="fill:none;stroke:#000000;stroke-width:3.52778;stroke-linecap:square;stroke-linejoin:miter;stroke-dasharray:none;stroke-opacity:1"
       d="m 146.46294,82.14428 v 58.30212 h 58.30212 V 82.14428 Z"
       id="path1-4-9" /><g
       style="fill:#000000"
       id="g23"
       transform="matrix(0.07826669,0,0,0.07826669,155.57773,91.259067)"><g
         id="g2">
	<g
   id="g1">
		<path
   d="m 50.025391,302.26367 c -1.175807,0.007 -2.362129,0.12499 -3.544922,0.36133 l -0.177735,0.0352 -0.177734,0.043 c -0.721146,0.17483 -2.026817,0.51972 -3.203125,1.00977 -1.237549,0.51393 -2.308576,1.13547 -3.115234,1.65039 l -0.107422,0.0684 -0.105469,0.0723 c -0.935192,0.63532 -1.870813,1.36886 -2.822266,2.32031 -0.0023,0.002 -0.0036,0.006 -0.0059,0.008 -0.0024,0.002 -0.0055,0.004 -0.0078,0.006 -0.781928,0.78197 -1.526468,1.69055 -2.171875,2.64453 -0.874843,1.22293 -1.521041,2.55581 -1.914062,3.5 -0.441941,1.06172 -0.835455,2.26524 -1.09375,3.5957 -0.224743,1.13055 -0.369141,2.3996 -0.369141,3.68165 0,5.00147 2.04278,9.88849 5.548828,13.39453 0.80193,0.80361 1.79064,1.65947 2.986329,2.42968 1.055319,0.70275 2.117209,1.25393 3.158203,1.6875 0.0051,0.002 0.01054,0.004 0.01563,0.006 0.0013,5.5e-4 0.0026,0.001 0.0039,0.002 1.128299,0.46999 2.350082,0.84394 3.535156,1.08398 l 0.04687,0.01 0.04687,0.01 c 1.31259,0.25126 2.541342,0.33203 3.640625,0.33203 4.964327,0 9.854804,-1.96196 13.423828,-5.55273 3.568042,-3.54018 5.554925,-8.46818 5.558594,-13.38867 v -0.008 c 0.0013,-1.10403 -0.08491,-2.3909 -0.347656,-3.71093 l -0.02734,-0.13672 -0.03125,-0.13477 c -0.206099,-0.88991 -0.520205,-2.0664 -1.029297,-3.29101 l -0.0059,-0.0156 c -0.482162,-1.1599 -1.088682,-2.26979 -1.740235,-3.24804 l -0.02539,-0.0391 -0.02539,-0.0391 c -0.642412,-0.94312 -1.435129,-1.93122 -2.320312,-2.81641 -3.593903,-3.59544 -8.581782,-5.60054 -13.595703,-5.57031 z m -10.28125,34.82031 c -0.054,-0.036 -0.108156,-0.0667 -0.16211,-0.10351 l 0.238281,0.15625 c -0.02668,-0.017 -0.0497,-0.0357 -0.07617,-0.0527 z"
   id="path1-7" />
	</g>
</g><g
         id="g4">
	<g
   id="g3">
		<path
   d="m 130.33984,412.69336 c -1.1758,0.007 -2.36213,0.12499 -3.54492,0.36133 l -0.17773,0.0351 -0.17774,0.043 c -0.72688,0.17622 -2.03214,0.52177 -3.20507,1.00977 -0.002,8e-4 -0.004,0.001 -0.006,0.002 -0.005,0.002 -0.009,0.004 -0.0137,0.006 -1.235,0.51478 -2.2989,1.1352 -3.09375,1.64258 l -0.10742,0.0684 -0.10547,0.0723 c -1.06747,0.72519 -1.95556,1.49401 -2.67187,2.17578 l -0.0781,0.0742 -0.0762,0.0762 c -3.51716,3.51337 -5.55859,8.42738 -5.55859,13.42968 0,1.32871 0.15326,2.56753 0.36328,3.6543 l 0.006,0.0254 0.004,0.0254 c 0.25527,1.28043 0.64411,2.45578 1.04493,3.45703 l 0.0215,0.0566 0.0234,0.0566 c 0.4296,1.03207 0.98159,2.10681 1.70312,3.1875 0.74992,1.16107 1.57568,2.10923 2.21485,2.78516 l 0.10742,0.11523 0.11133,0.10938 c 3.53978,3.489 8.43896,5.48242 13.38281,5.48242 1.04171,0 2.39766,-0.0862 3.70117,-0.3457 h 0.004 c 1.27494,-0.25199 2.4599,-0.62891 3.55859,-1.08789 l 0.008,-0.004 c 0.97672,-0.40536 2.22805,-1.00724 3.47657,-1.89648 0.96327,-0.64883 1.88188,-1.39926 2.66992,-2.18555 l 0.008,-0.008 0.006,-0.006 c 0.94275,-0.94472 1.67713,-1.87503 2.31836,-2.81641 l 0.0801,-0.11914 0.0762,-0.12109 c 0.5038,-0.79313 1.12425,-1.85608 1.64062,-3.10157 l 0.0215,-0.0508 0.0195,-0.0508 c 0.44399,-1.1091 0.74683,-2.17381 0.96289,-3.18945 l 0.006,-0.0312 c 0.3411,-1.48687 0.42578,-2.84083 0.42578,-3.94531 -0.002,-4.963 -1.96088,-9.85195 -5.55469,-13.41993 l -0.0215,-0.0195 c -3.58816,-3.57837 -8.56372,-5.58293 -13.57227,-5.55273 z m -15.65039,29.45898 c -0.0213,-0.0331 -0.0432,-0.0623 -0.0644,-0.0957 l 0.16406,0.25 c -0.0352,-0.0515 -0.0652,-0.10279 -0.0996,-0.1543 z"
   id="path2-1" />
	</g>
</g><g
         id="g6">
	<g
   id="g5">
		<path
   d="m 230.89648,472.93555 c -1.23484,0 -2.4897,0.12725 -3.73046,0.38672 -1.09735,0.21507 -2.29362,0.53703 -3.53907,1.05664 -1.22326,0.508 -2.29675,1.12597 -3.11523,1.64843 l -0.10742,0.0684 -0.10547,0.0723 c -1.06748,0.72519 -1.95556,1.49401 -2.67188,2.17578 l -0.0781,0.0742 -0.0762,0.0762 c -3.49234,3.48858 -5.5586,8.50836 -5.5586,13.43164 0,1.33407 0.15322,2.56536 0.36328,3.65234 l 0.004,0.0234 0.006,0.0254 c 0.24172,1.21442 0.62096,2.44838 1.09766,3.58789 l -0.008,-0.0137 c 0.43075,1.03483 0.9838,2.10575 1.69727,3.17578 0.75159,1.16555 1.57974,2.11709 2.2207,2.79492 l 0.17188,0.18165 0.18164,0.17187 c 0.67118,0.6346 1.61266,1.45379 2.76172,2.19922 1.08197,0.72528 2.16743,1.28492 3.21679,1.7207 1.13914,0.47544 2.36226,0.84641 3.53516,1.08399 l 0.0469,0.01 0.0469,0.01 c 1.06879,0.20459 2.30297,0.35937 3.64062,0.35937 5.00795,0 9.87461,-2.05576 13.38086,-5.51172 l 0.11524,-0.11328 0.11133,-0.11718 c 0.64437,-0.68296 1.41477,-1.56629 2.14257,-2.63477 l 0.0801,-0.11914 0.0762,-0.12109 c 0.62235,-0.97976 1.16029,-2.00743 1.60743,-3.08008 l 0.004,-0.008 c 0.46725,-1.12027 0.84738,-2.34819 1.0918,-3.57421 l 0.006,-0.0312 0.006,-0.0332 c 0.20454,-1.06688 0.36133,-2.30042 0.36133,-3.63476 0.002,-5.00195 -2.03772,-9.91126 -5.54688,-13.42383 l -0.006,-0.004 c -0.88463,-0.88586 -1.87977,-1.68817 -2.83789,-2.33789 l -0.0215,-0.0137 -0.0215,-0.0156 c -1.00345,-0.67215 -2.12594,-1.27738 -3.27344,-1.75391 -1.20446,-0.50347 -2.36415,-0.82091 -3.42578,-1.03516 l -0.0117,-0.002 c -1.27557,-0.27536 -2.56754,-0.4082 -3.83789,-0.4082 z m -10.48632,34.78906 c -0.0444,-0.0298 -0.0884,-0.0556 -0.13282,-0.0859 l 0.24805,0.16406 c -0.0403,-0.0256 -0.0754,-0.0523 -0.11523,-0.0781 z m -5.33594,-5.34766 c -0.0192,-0.0298 -0.0395,-0.0558 -0.0586,-0.0859 l 0.16407,0.25 c -0.0373,-0.0546 -0.069,-0.10941 -0.10547,-0.16407 z m 12.0918,-29.05468 c 0.0288,-0.006 0.0592,-0.014 0.0879,-0.0195 l -0.20704,0.041 c 0.0395,-0.009 0.0796,-0.0132 0.11915,-0.0215 z"
   id="path4-3" />
	</g>
</g><g
         id="g8">
	<g
   id="g7">
		<path
   d="m 80.097656,91.453125 c -1.169891,0.01339 -2.340838,0.13937 -3.496094,0.375 -1.075352,0.209543 -2.294219,0.531033 -3.5625,1.060547 -0.0014,5.7e-4 -0.0025,0.0014 -0.0039,0.002 -1.235804,0.513601 -2.305565,1.13409 -3.111328,1.648437 l -0.107422,0.06836 -0.105469,0.07227 c -0.93651,0.636217 -1.873331,1.37081 -2.826171,2.324219 -0.0016,0.0016 -0.0023,0.0042 -0.0039,0.0059 -0.0017,0.0017 -0.0042,0.0022 -0.0059,0.0039 -3.513319,3.514848 -5.548828,8.424198 -5.548828,13.421878 0,1.3287 0.153261,2.56752 0.363281,3.65429 l 0.0059,0.0254 0.0039,0.0254 c 0.245318,1.23051 0.63011,2.46167 1.099609,3.58398 l -0.0078,-0.0137 c 0.423135,1.01653 0.971708,2.09304 1.699218,3.18359 0.765966,1.18709 1.620157,2.17265 2.390625,2.94141 3.514695,3.51469 8.423211,5.58203 13.427735,5.58203 4.931718,0 9.77951,-1.97835 13.310547,-5.4707 1.029111,-0.98385 1.818476,-1.98979 2.441406,-2.9043 l 0.08008,-0.11914 0.07617,-0.1211 c 0.508613,-0.8007 1.126708,-1.86394 1.640625,-3.10351 0.493146,-1.18565 0.799865,-2.32586 1.003906,-3.28906 l 0.05859,-0.26953 c -0.01488,0.0747 -0.03651,0.15917 -0.05273,0.23632 0.340832,-1.48662 0.425782,-2.84308 0.425782,-3.94531 -0.0019,-4.97277 -1.96926,-9.87171 -5.576172,-13.441406 -3.589455,-3.579639 -8.582552,-5.594751 -13.619141,-5.537109 z M 64.490234,120.89453 c -0.02044,-0.0317 -0.04219,-0.0598 -0.0625,-0.0918 l 0.164063,0.25 c -0.03616,-0.0529 -0.06629,-0.10532 -0.101563,-0.1582 z"
   id="path6-8" />
	</g>
</g><g
         id="g10">
	<g
   id="g9">
		<path
   d="m 190.52734,1.1015625 c -1.16984,0.013389 -2.35987,0.1362237 -3.55078,0.3828125 l -0.0176,0.00391 c -0.98567,0.1997311 -2.2122,0.5166495 -3.48828,1.0488282 -1.22326,0.508 -2.29675,1.125971 -3.11523,1.6484375 l -0.10742,0.068359 -0.10547,0.072266 c -0.94914,0.6447921 -1.88242,1.3818375 -2.82617,2.3261718 -0.002,0.00163 -0.002,0.00423 -0.004,0.00586 -0.002,0.00168 -0.004,0.00222 -0.006,0.00391 -3.51118,3.5127106 -5.54883,8.4222466 -5.54883,13.4199216 0,5.001477 2.04278,9.88849 5.54883,13.394531 0.78184,0.783474 1.76161,1.636389 2.94531,2.404297 1.08273,0.726032 2.16865,1.286569 3.21875,1.722657 1.12504,0.469602 2.35468,0.84905 3.5625,1.089843 l 0.0332,0.0059 0.0332,0.0078 c 1.08886,0.208434 2.31523,0.357422 3.64062,0.357422 1.27974,0 2.54784,-0.142607 3.68164,-0.367187 1.32737,-0.257669 2.52529,-0.651215 3.58204,-1.091797 l 0.0195,-0.0098 c 1.04433,-0.434283 2.12318,-0.989221 3.19922,-1.710937 1.18012,-0.764381 2.1591,-1.615276 2.94336,-2.400391 l 0.004,-0.0039 c 3.51346,-3.513676 5.55274,-8.400455 5.55274,-13.394532 0.002,-4.964584 -1.95707,-9.860693 -5.55274,-13.429687 l -0.0215,-0.019531 C 200.55479,3.0529031 195.55978,1.0439679 190.52734,1.1015625 Z M 180.25195,35.880859 c -0.0436,-0.02926 -0.0872,-0.05416 -0.13086,-0.08398 l 0.24805,0.164062 c -0.0409,-0.02599 -0.0768,-0.05387 -0.11719,-0.08008 z"
   id="path8-7" />
	</g>
</g><g
         id="g12">
	<g
   id="g11">
		<path
   d="m 311.21875,181.79883 c -1.2404,0 -2.47812,0.12603 -3.70117,0.37695 -1.0966,0.21292 -2.31563,0.53926 -3.57813,1.06641 -8.1e-4,3.3e-4 -0.001,0.002 -0.002,0.002 -1.22225,0.50781 -2.29534,1.12436 -3.11328,1.64648 l -0.10742,0.0684 -0.10547,0.0723 c -1.06748,0.72519 -1.95556,1.49401 -2.67188,2.17578 l -0.0762,0.0723 -0.0742,0.0742 c -0.7842,0.78246 -1.53201,1.69244 -2.17969,2.64843 -0.0116,0.0162 -0.0217,0.0326 -0.0332,0.0488 -0.86102,1.21174 -1.49942,2.52854 -1.88672,3.45899 -0.44106,1.0596 -0.83447,2.26583 -1.08984,3.54882 l -0.006,0.0254 -0.004,0.0234 c -0.2128,1.10118 -0.36328,2.38316 -0.36328,3.67969 0,1.3287 0.15326,2.56753 0.36328,3.6543 l 0.006,0.0254 0.004,0.0254 c 0.25459,1.27705 0.64179,2.45196 1.04492,3.45898 l 0.0215,0.0566 0.0234,0.0566 c 0.43045,1.03409 0.98259,2.10455 1.69532,3.17383 0.76733,1.19084 1.62421,2.17866 2.39648,2.94922 3.51469,3.51469 8.42321,5.58203 13.42773,5.58203 1.27904,0 2.54635,-0.14282 3.67969,-0.36719 -0.014,0.003 -0.027,0.007 -0.041,0.01 l 0.0664,-0.0137 c 1.3064,-0.2555 2.50287,-0.64661 3.56055,-1.08789 l 0.0137,-0.006 c 0.96988,-0.40283 2.20004,-1.00039 3.42383,-1.86524 0.94557,-0.63192 1.8706,-1.38257 2.7207,-2.2539 0.97936,-0.95533 1.73474,-1.92274 2.32617,-2.79102 l 0.0801,-0.11914 0.0762,-0.12109 c 0.61561,-0.96914 1.15938,-1.99939 1.61329,-3.08985 l 0.0234,-0.0566 0.0215,-0.0566 c 0.40313,-1.00702 0.79032,-2.18193 1.04492,-3.45898 l 0.006,-0.0312 0.006,-0.0332 c 0.20372,-1.06263 0.35918,-2.28632 0.36133,-3.61328 v -0.0137 c 0.003,-1.31826 -0.15186,-2.59726 -0.35938,-3.67969 l -0.006,-0.0332 -0.006,-0.0312 c -0.2128,-1.06744 -0.54003,-2.27957 -1.0625,-3.53516 l -0.006,-0.0117 c -0.48238,-1.1611 -1.08806,-2.27277 -1.74023,-3.25196 l -0.0254,-0.0391 -0.0254,-0.0391 c -0.54021,-0.79307 -1.35145,-1.88759 -2.45508,-2.94141 -0.85141,-0.83459 -1.79369,-1.5929 -2.70508,-2.21094 l -0.0215,-0.0137 -0.0215,-0.0156 c -1.00345,-0.67215 -2.12594,-1.27738 -3.27344,-1.75391 -1.20344,-0.50306 -2.35723,-0.81993 -3.42382,-1.03516 -0.001,-2.7e-4 -0.003,2.8e-4 -0.004,0 -1.27371,-0.27556 -2.56087,-0.41015 -3.83789,-0.41015 z m 13.28711,5.43945 c 0.0453,0.0444 0.0939,0.086 0.13867,0.13086 l -0.1875,-0.18164 c 0.0177,0.0167 0.0313,0.0341 0.0488,0.0508 z"
   id="path10-3" />
	</g>
</g><g
         id="g14">
	<g
   id="g13">
		<path
   d="m 170.85156,171.75781 c -27.13558,0 -48.98828,21.94433 -48.98828,49.02539 v 120.61914 c 0,27.07361 21.81783,49.02735 48.95313,49.02735 11.40582,0 21.76757,-3.91926 30.05859,-10.42383 8.35964,6.50802 18.86117,10.42383 30.21289,10.42383 27.05964,0 49.21094,-21.95842 49.21094,-49.02735 V 220.7832 c -0.001,-27.076 -22.18735,-49.02539 -49.24805,-49.02539 -11.35712,0 -21.83251,3.91616 -30.17773,10.41992 -8.27818,-6.49763 -18.621,-10.41992 -30.02149,-10.41992 z m 0.11328,37.96485 c 6.08686,0 11.13477,5.05174 11.13477,11.06054 v 120.61914 c 0,6.01172 -5.04789,11.0625 -11.13477,11.0625 -6.08687,0 -11.13476,-5.05078 -11.13476,-11.0625 V 220.7832 c 0,-6.0088 5.04791,-11.06054 11.13476,-11.06054 z m 60.23438,0 c 6.08685,0 11.13476,5.05174 11.13476,11.06054 v 120.61914 c 0,6.01172 -5.04788,11.0625 -11.13476,11.0625 -6.08688,0 -11.13477,-5.05078 -11.13477,-11.0625 V 220.7832 c 0,-6.0088 5.04792,-11.06054 11.13477,-11.06054 z"
   id="path12" />
	</g>
</g><g
         id="g16">
	<g
   id="g15">
		<path
   d="m 351.29883,331.99219 c -27.09117,0 -49.02539,22.23554 -49.02539,49.29492 0,11.3486 3.91449,21.84366 10.41797,30.19922 -6.49327,8.26572 -10.41797,18.59143 -10.41797,29.98828 0,27.13503 21.95256,48.95312 49.02539,48.95312 h 120.61914 c 27.05925,0 49.02539,-21.76926 49.02539,-48.90429 0,-11.36977 -3.91827,-21.79707 -10.41992,-30.11719 6.5016,-8.31989 10.41992,-18.7481 10.41992,-30.11914 0,-27.05938 -21.93423,-49.29492 -49.02539,-49.29492 z m 0,37.96484 h 120.61914 c 6.01026,0 11.06055,5.04736 11.06055,11.13477 0,6.0874 -5.05029,11.13476 -11.06055,11.13476 H 351.29883 c -6.01026,0 -11.06055,-5.04736 -11.06055,-11.13476 0,-6.08741 5.05029,-11.13477 11.06055,-11.13477 z m 0,60.23633 h 120.61914 c 6.01026,0 11.06055,5.04736 11.06055,11.13476 0,6.08596 -5.05085,11.13477 -11.06055,11.13477 H 351.29883 c -6.01026,0 -11.06055,-5.04736 -11.06055,-11.13477 0,-6.0874 5.05029,-11.13476 11.06055,-11.13476 z"
   id="path14" />
	</g>
</g><g
         id="g18">
	<g
   id="g17">
		<path
   d="m 40.15625,382.58203 c -27.145074,0 -49.0996094,21.95703 -49.0996094,49.10156 0,27.14453 21.9550784,49.09961 49.0996094,49.09961 27.144531,0 49.101562,-21.95453 49.101562,-49.09961 0,-27.14507 -21.956488,-49.10156 -49.101562,-49.10156 z m 0,37.9668 c 6.068402,0 11.134766,5.06636 11.134766,11.13476 0,6.06841 -5.066364,11.13477 -11.134766,11.13477 -6.068402,0 -11.134766,-5.06636 -11.134766,-11.13477 0,-6.0684 5.066364,-11.13476 11.134766,-11.13476 z"
   id="path16" />
	</g>
</g><g
         id="g20">
	<g
   id="g19">
		<path
   d="m 471.84375,1.0917969 c -27.14453,0 -49.10156,21.9545361 -49.10156,49.0996091 0,27.145074 21.95649,49.101563 49.10156,49.101563 27.14507,0 49.09961,-21.957032 49.09961,-49.101563 0,-27.144531 -21.95508,-49.0996091 -49.09961,-49.0996091 z m 0,37.9667971 c 6.0684,0 11.13477,5.065555 11.13477,11.134765 5.4e-4,6.067396 -5.06637,11.134766 -11.13477,11.134766 -6.0684,0 -11.13477,-5.066363 -11.13477,-11.134766 0,-6.068402 5.06637,-11.134765 11.13477,-11.134765 z"
   id="path18" />
	</g>
</g><g
         id="g22">
	<g
   id="g21">
		<path
   d="m 276.98633,61.125 c -4.434,-0.04326 -7.33673,0.241755 -8.02344,0.318359 -10.43651,1.158768 -17.8703,10.464748 -16.75781,20.878907 1.11603,10.451138 10.387,17.932004 20.82617,16.86914 l 0.0117,-0.002 0.0117,-0.002 c 0,0 25.04943,-2.228034 44.25781,15.11133 16.07949,14.51246 25.11523,39.59334 25.11523,76.44336 0,43.84498 12.27044,77.71551 38.06641,98.86133 22.17137,18.17806 48.4959,21.77929 65.58984,21.77929 10.77111,0 18.27551,-1.40148 19.45313,-1.63867 10.31927,-2.06867 16.94433,-12.01284 14.88086,-22.33398 -2.06569,-10.32465 -12.01392,-16.98016 -22.35742,-14.88672 l -0.01,0.002 -0.01,0.002 c 0,0 -31.32214,5.87805 -53.47657,-12.2832 -15.37779,-12.6064 -24.17187,-35.31196 -24.17187,-69.50391 0,-46.09438 -12.1954,-81.84948 -37.93555,-104.888668 C 318.51967,64.42538 290.28718,61.254772 276.98633,61.125 Z"
   id="path20" />
	</g>
</g></g></g><style
     type="text/css"
     id="style1">
	.st0{fill:#000000;}
</style><style
     type="text/css"
     id="style1-7">
	.st0{fill:#000000;}
</style></svg>
