<?xml version="1.0" encoding="UTF-8" standalone="no"?>
<!-- Created with Inkscape (http://www.inkscape.org/) -->

<svg
   width="61.829906mm"
   height="61.829906mm"
   viewBox="0 0 61.829906 61.829906"
   version="1.1"
   id="svg1"
   xml:space="preserve"
   xmlns="http://www.w3.org/2000/svg"
   xmlns:svg="http://www.w3.org/2000/svg"><defs
     id="defs1" /><g
     id="layer1"
     transform="translate(-75.794458,-80.380392)"><path
       style="fill:none;stroke:#000000;stroke-width:3.52778;stroke-linecap:square;stroke-linejoin:miter;stroke-dasharray:none;stroke-opacity:1"
       d="M 77.55835,82.144278 V 140.4464 h 58.30212 V 82.144278 Z"
       id="path1-4-4" /><path
       id="path8"
       style="fill:#000000;stroke-width:3.70417;stroke-linecap:square"
       d="m 106.70925,91.82747 a 19.467987,19.467987 0 0 0 -19.468063,19.46806 19.467987,19.467987 0 0 0 19.468063,19.46755 19.467987,19.467987 0 0 0 19.46806,-19.46755 19.467987,19.467987 0 0 0 -19.46806,-19.46806 z m 5.59346,5.919018 a 6.742243,6.742243 0 0 1 6.74222,6.742222 6.742243,6.742243 0 0 1 -6.72724,6.74119 3.574201,3.574201 0 0 1 -3.55172,3.26182 3.574201,3.574201 0 0 1 -3.57446,-3.57394 3.574201,3.574201 0 0 1 1.4118,-2.83445 6.742243,6.742243 0 0 1 -1.04283,-3.59462 6.742243,6.742243 0 0 1 6.74223,-6.742222 z m -12.835396,3.117642 a 4.3052876,4.3052876 0 0 1 4.305166,4.30464 4.3052876,4.3052876 0 0 1 -4.305166,4.30568 4.3052876,4.3052876 0 0 1 -4.305164,-4.30568 4.3052876,4.3052876 0 0 1 4.305164,-4.30464 z m -0.241329,11.24324 a 5.1988376,5.1988376 0 0 1 5.198645,5.19865 5.1988376,5.1988376 0 0 1 -5.198645,5.19865 5.1988376,5.1988376 0 0 1 -5.198649,-5.19865 5.1988376,5.1988376 0 0 1 5.198649,-5.19865 z m 11.790495,6.85384 a 2.4369553,2.4369553 0 0 1 2.43706,2.43655 2.4369553,2.4369553 0 0 1 -2.43706,2.43758 2.4369553,2.4369553 0 0 1 -2.43706,-2.43758 2.4369553,2.4369553 0 0 1 2.43706,-2.43655 z" /></g><style
     type="text/css"
     id="style1">
	.st0{fill:#000000;}
</style><style
     type="text/css"
     id="style1-7">
	.st0{fill:#000000;}
</style></svg>
