<?xml version="1.0" encoding="UTF-8" standalone="no"?>
<!-- Created with Inkscape (http://www.inkscape.org/) -->

<svg
   width="61.829906mm"
   height="61.829914mm"
   viewBox="0 0 61.829906 61.829914"
   version="1.1"
   id="svg1"
   xml:space="preserve"
   xmlns="http://www.w3.org/2000/svg"
   xmlns:svg="http://www.w3.org/2000/svg"><defs
     id="defs1" /><g
     id="layer1"
     transform="translate(-3.6082958,-15.434404)"><path
       style="opacity:1;fill:none;stroke:#000000;stroke-width:3.52778;stroke-linecap:square;stroke-linejoin:miter;stroke-dasharray:none;stroke-opacity:1"
       d="M 5.3721858,17.198294 V 75.500427 H 63.674314 V 17.198294 Z"
       id="path1" /><g
       id="g3"
       transform="matrix(0.09529636,0,0,0.09529636,10.127238,21.953492)">
	<path
   class="st0"
   d="M 197.676,421.001 78.031,301.362 c 5.924,-4.073 11.86,-7.621 17.784,-10.716 6.591,-3.443 13.189,-6.376 19.856,-8.801 l 100.32,100.317 c 3.35,-11.007 5.569,-22.71 6.716,-35.624 l -73.348,-73.357 c 6.898,-1.099 13.904,-1.842 21.036,-2.286 15.981,-0.986 32.557,-0.429 49.75,0.97 -0.424,-3.936 -0.848,-7.743 -1.294,-11.411 -1.082,-8.898 -2.133,-18.265 -3.03,-27.963 -5.883,-0.372 -11.763,-0.67 -17.65,-0.84 -30.079,-0.873 -60.442,1.624 -90.546,11.75 -15.028,5.076 -29.971,12.025 -44.622,21.247 -14.628,9.205 -29.005,20.713 -43.034,34.742 l -19.965,19.961 27.518,27.526 19.966,-19.97 c 2.352,-2.352 4.687,-4.59 7.031,-6.731 L 179.12,444.778 c 7.132,-7.767 13.274,-15.646 18.556,-23.777 z"
   id="path1-2" />
	<path
   class="st0"
   d="m 270.547,197.045 c -0.771,-27.227 1.556,-52.603 9.763,-77.009 4.118,-12.228 9.706,-24.237 17.291,-36.287 7.58,-12.042 17.157,-24.099 29.32,-36.262 L 346.891,27.525 319.371,0 299.394,19.97 c -18.709,18.709 -32.876,38.024 -43.212,57.775 -15.545,29.644 -22.294,60.12 -24.116,90.271 -1.846,30.201 1.019,60.208 4.619,90.304 2.356,19.622 4.259,38.501 4.781,56.636 0.771,27.227 -1.548,52.603 -9.763,77.01 -4.114,12.219 -9.71,24.252 -17.287,36.286 -7.58,12.034 -17.165,24.084 -29.324,36.246 l -19.97,19.978 27.519,27.524 19.973,-19.977 c 18.718,-18.709 32.88,-38.024 43.225,-57.767 15.536,-29.643 22.288,-60.111 24.108,-90.28 1.838,-30.192 -1.023,-60.208 -4.619,-90.304 -2.361,-19.622 -4.264,-38.492 -4.781,-56.627 z"
   id="path2" />
	<path
   class="st0"
   d="m 484.479,165.114 -19.962,19.962 c -2.352,2.351 -4.672,4.598 -7.023,6.74 L 332.884,67.215 c -7.128,7.766 -13.245,15.622 -18.555,23.767 l 119.664,119.673 c -5.948,4.032 -11.864,7.588 -17.804,10.684 -6.586,3.459 -13.18,6.368 -19.856,8.808 L 296.013,129.823 c -3.35,11.007 -5.564,22.726 -6.716,35.632 l 73.377,73.373 c -6.901,1.099 -13.924,1.818 -21.06,2.271 -15.985,0.978 -32.553,0.461 -49.778,-0.954 0.449,3.919 0.873,7.718 1.322,11.386 1.078,8.906 2.134,18.257 3.035,27.962 5.903,0.404 11.778,0.695 17.67,0.873 30.063,0.841 60.41,-1.665 90.514,-11.783 15.064,-5.051 29.983,-12.009 44.626,-21.238 14.628,-9.213 29.012,-20.721 43.034,-34.743 l 19.962,-19.97 z"
   id="path3" />
</g></g><style
     type="text/css"
     id="style1">
	.st0{fill:#000000;}
</style></svg>
