<?xml version="1.0" encoding="UTF-8" standalone="no"?>
<!-- Created with Inkscape (http://www.inkscape.org/) -->

<svg
   width="61.829914mm"
   height="61.82991mm"
   viewBox="0 0 61.829914 61.82991"
   version="1.1"
   id="svg1"
   xml:space="preserve"
   xmlns="http://www.w3.org/2000/svg"
   xmlns:svg="http://www.w3.org/2000/svg"><defs
     id="defs1" /><g
     id="layer1"
     transform="translate(-144.69905,-15.434407)"><path
       style="fill:none;stroke:#000000;stroke-width:3.52778;stroke-linecap:square;stroke-linejoin:miter;stroke-dasharray:none;stroke-opacity:1"
       d="m 146.46294,17.198297 v 58.30213 h 58.30213 v -58.30213 z"
       id="path1-23-1" /><g
       style="fill:none"
       id="g2"
       transform="matrix(1.9572142,0,0,1.9572142,152.12744,22.862792)"><path
         d="m 18,7 h 0.01 M 15,7 h 0.01 M 18,17 h 0.01 M 15,17 h 0.01 M 6,10 h 12 c 0.9319,0 1.3978,0 1.7654,-0.15224 0.49,-0.20299 0.8794,-0.59234 1.0824,-1.08239 C 21,8.39782 21,7.93188 21,7 21,6.06812 21,5.60218 20.8478,5.23463 20.6448,4.74458 20.2554,4.35523 19.7654,4.15224 19.3978,4 18.9319,4 18,4 H 6 C 5.06812,4 4.60218,4 4.23463,4.15224 3.74458,4.35523 3.35523,4.74458 3.15224,5.23463 3,5.60218 3,6.06812 3,7 3,7.93188 3,8.39782 3.15224,8.76537 3.35523,9.25542 3.74458,9.64477 4.23463,9.84776 4.60218,10 5.06812,10 6,10 Z m 0,10 h 12 c 0.9319,0 1.3978,0 1.7654,-0.1522 0.49,-0.203 0.8794,-0.5924 1.0824,-1.0824 C 21,18.3978 21,17.9319 21,17 c 0,-0.9319 0,-1.3978 -0.1522,-1.7654 -0.203,-0.49 -0.5924,-0.8794 -1.0824,-1.0824 C 19.3978,14 18.9319,14 18,14 H 6 C 5.06812,14 4.60218,14 4.23463,14.1522 3.74458,14.3552 3.35523,14.7446 3.15224,15.2346 3,15.6022 3,16.0681 3,17 c 0,0.9319 0,1.3978 0.15224,1.7654 0.20299,0.49 0.59234,0.8794 1.08239,1.0824 C 4.60218,20 5.06812,20 6,20 Z"
         stroke="#000000"
         stroke-width="2"
         stroke-linecap="round"
         stroke-linejoin="round"
         id="path1-8" /></g></g><style
     type="text/css"
     id="style1">
	.st0{fill:#000000;}
</style></svg>
